{"accessors":[{"bufferView":0,"componentType":5126,"count":95862,"min":[-0.2330179065465927,-0.540477991104126,-1.0838279724121094],"max":[0.2646681070327759,0.540477991104126,-0.0028720006812363865],"type":"VEC3","name":"Tire_vertices#0_POSITION"},{"bufferView":0,"byteOffset":12,"componentType":5120,"count":95862,"type":"VEC4","name":"Tire_vertices#0_TANGENT"},{"bufferView":0,"byteOffset":16,"componentType":5120,"count":95862,"type":"VEC4","name":"Tire_vertices#0_NORMAL"},{"bufferView":0,"byteOffset":20,"componentType":5122,"count":95862,"type":"VEC2","name":"Tire_vertices#0_TEXCOORD_0"},{"bufferView":0,"byteOffset":24,"componentType":5122,"count":95862,"type":"VEC2","name":"Tire_vertices#0_TEXCOORD_1"},{"bufferView":0,"byteOffset":28,"componentType":5123,"count":95862,"type":"VEC4","name":"Tire_vertices#0_COLOR_0"},{"bufferView":1,"componentType":5123,"count":461520,"type":"SCALAR","name":"Tire_indices#1"}],"asset":{"generator":"Extended Khronos glTF Blender I/O v1.0.0","version":"2.0","extensions":{"ASOBO_asset_optimized":{"BoundingBoxMax":[0.2646681070327759,0.540477991104126,-0.0028720006812363865],"BoundingBoxMin":[-0.2330179065465927,-0.540477991104126,-1.0838279724121094],"MajorVersion":4,"MinorVersion":2},"ASOBO_normal_map_convention":{"tangent_space_convention":"DirectX"}}},"bufferViews":[{"buffer":0,"byteLength":3451032,"byteStride":36,"byteOffset":104,"target":34962,"name":"BufferViewVertexND"},{"buffer":0,"byteLength":923040,"byteOffset":3451232,"target":34963,"name":"BufferViewIndex"}],"extensionsUsed":["ASOBO_normal_map_convention","ASOBO_tags","MSFT_texture_dds","ASOBO_asset_optimized"],"extensionsRequired":["MSFT_texture_dds"],"materials":[{"name":"lambert3SG","pbrMetallicRoughness":{"metallicFactor":0.0,"roughnessFactor":0.5,"baseColorTexture":{"index":0}}}],"meshes":[{"primitives":[{"attributes":{"COLOR_0":5,"NORMAL":2,"POSITION":0,"TANGENT":1,"TEXCOORD_0":3,"TEXCOORD_1":4},"indices":6,"material":0,"mode":4,"extras":{"ASOBO_primitive":{"PrimitiveCount":108777,"VertexType":"VTX","VertexVersion":2}}},{"attributes":{"COLOR_0":5,"NORMAL":2,"POSITION":0,"TANGENT":1,"TEXCOORD_0":3,"TEXCOORD_1":4},"indices":6,"material":0,"mode":4,"extras":{"ASOBO_primitive":{"BaseVertexIndex":65528,"PrimitiveCount":45063,"StartIndex":326331,"VertexType":"VTX","VertexVersion":2}}}],"name":"Tire"}],"nodes":[{"translation":[0.0,0.269848108291626,0.5446658730506897],"rotation":[0.0,0.0,-0.7071067690849304,0.7071067690849304],"mesh":0,"name":"Tire"}],"scene":0,"scenes":[{"nodes":[0],"name":"Scene"}],"textures":[{"extensions":{"MSFT_texture_dds":{"source":0}}}],"buffers":[{"byteLength":4374272,"uri":"Tyre.bin"}],"images":[{"uri":"BLACK TYRE.PNG.DDS","name":"Black tyre","extras":"ASOBO_image_converted_meta"}]}
