{"accessors":[{"bufferView":0,"componentType":5126,"count":18,"min":[-19.685039520263673,0.005047470331192017,-59.055091857910159],"max":[19.685039520263673,19.690086364746095,59.05510711669922],"type":"VEC3","name":"ID2_vertices#0_POSITION"},{"bufferView":0,"byteOffset":12,"componentType":5120,"count":18,"type":"VEC4","name":"ID2_vertices#0_TANGENT"},{"bufferView":0,"byteOffset":16,"componentType":5120,"count":18,"type":"VEC4","name":"ID2_vertices#0_NORMAL"},{"bufferView":0,"byteOffset":20,"componentType":5122,"count":18,"type":"VEC2","name":"ID2_vertices#0_TEXCOORD_0"},{"bufferView":0,"byteOffset":24,"componentType":5122,"count":18,"type":"VEC2","name":"ID2_vertices#0_TEXCOORD_1"},{"bufferView":0,"byteOffset":28,"componentType":5123,"count":18,"type":"VEC4","name":"ID2_vertices#0_COLOR_0"},{"bufferView":1,"componentType":5123,"count":24,"type":"SCALAR","name":"ID2_indices#0"}],"asset":{"generator":"Extended Khronos glTF Blender I/O v1.0.0","version":"2.0","extensions":{"ASOBO_asset_optimized":{"BoundingBoxMax":[19.685039520263673,19.690086364746095,59.05510711669922],"BoundingBoxMin":[-19.685039520263673,0.005047470331192017,-59.055091857910159],"MajorVersion":4,"MinorVersion":2},"ASOBO_normal_map_convention":{"tangent_space_convention":"DirectX"}}},"bufferViews":[{"buffer":0,"byteLength":648,"byteStride":36,"byteOffset":120,"target":34962,"name":"BufferViewVertexND"},{"buffer":0,"byteLength":48,"byteOffset":848,"target":34963,"name":"BufferViewIndex"}],"extensionsUsed":["ASOBO_normal_map_convention","ASOBO_tags","MSFT_texture_dds","ASOBO_asset_optimized"],"extensionsRequired":["MSFT_texture_dds"],"materials":[{"name":"material","pbrMetallicRoughness":{"metallicFactor":0.0,"roughnessFactor":0.5,"baseColorTexture":{"index":0}}}],"meshes":[{"primitives":[{"attributes":{"COLOR_0":5,"NORMAL":2,"POSITION":0,"TANGENT":1,"TEXCOORD_0":3,"TEXCOORD_1":4},"indices":6,"material":0,"mode":4,"extras":{"ASOBO_primitive":{"PrimitiveCount":8,"VertexType":"VTX","VertexVersion":2}}}],"name":"ID2"}],"nodes":[{"scale":[0.02539999969303608,0.02539999969303608,0.02539999969303608],"mesh":0,"name":"Gabel"}],"scene":0,"scenes":[{"nodes":[0],"name":"Scene"}],"textures":[{"extensions":{"MSFT_texture_dds":{"source":0}}}],"buffers":[{"byteLength":896,"uri":"Gabel_Parking.bin"}],"images":[{"uri":"PARKING MARKER.PNG.DDS","name":"Parking Marker","extras":"ASOBO_image_converted_meta"}]}
