{"accessors":[{"bufferView":0,"componentType":5126,"count":188,"min":[-1.125,-0.7500747442245483,-1.125],"max":[1.125,0.7143709659576416,1.125],"type":"VEC3","name":"Cone_vertices#0_POSITION"},{"bufferView":0,"byteOffset":12,"componentType":5120,"count":188,"type":"VEC4","name":"Cone_vertices#0_TANGENT"},{"bufferView":0,"byteOffset":16,"componentType":5120,"count":188,"type":"VEC4","name":"Cone_vertices#0_NORMAL"},{"bufferView":0,"byteOffset":20,"componentType":5122,"count":188,"type":"VEC2","name":"Cone_vertices#0_TEXCOORD_0"},{"bufferView":0,"byteOffset":24,"componentType":5122,"count":188,"type":"VEC2","name":"Cone_vertices#0_TEXCOORD_1"},{"bufferView":0,"byteOffset":28,"componentType":5123,"count":188,"type":"VEC4","name":"Cone_vertices#0_COLOR_0"},{"bufferView":1,"componentType":5123,"count":366,"type":"SCALAR","name":"Cone_indices#0"}],"asset":{"generator":"Extended Khronos glTF Blender I/O v1.0.0","version":"2.0","extensions":{"ASOBO_asset_optimized":{"BoundingBoxMax":[1.265625,0.5357782244682312,1.265625],"BoundingBoxMin":[-1.265625,-0.5625560283660889,-1.265625],"MajorVersion":4,"MinorVersion":2},"ASOBO_normal_map_convention":{"tangent_space_convention":"DirectX"}}},"bufferViews":[{"buffer":0,"byteLength":6768,"byteStride":36,"byteOffset":16,"target":34962,"name":"BufferViewVertexND"},{"buffer":0,"byteLength":732,"byteOffset":6820,"target":34963,"name":"BufferViewIndex"}],"extensionsUsed":["ASOBO_normal_map_convention","ASOBO_tags","MSFT_texture_dds","ASOBO_asset_optimized"],"extensionsRequired":["MSFT_texture_dds"],"materials":[{"name":"Material.003","pbrMetallicRoughness":{"metallicFactor":0.0,"roughnessFactor":0.5,"baseColorTexture":{"index":0}}}],"meshes":[{"primitives":[{"attributes":{"COLOR_0":5,"NORMAL":2,"POSITION":0,"TANGENT":1,"TEXCOORD_0":3,"TEXCOORD_1":4},"indices":6,"material":0,"mode":4,"extras":{"ASOBO_primitive":{"PrimitiveCount":122,"VertexType":"VTX","VertexVersion":2}}}],"name":"Cone"}],"nodes":[{"translation":[0.0,0.25,0.0],"scale":[0.375,0.25,0.375],"mesh":0,"name":"Cone"}],"scene":0,"scenes":[{"nodes":[0],"name":"Scene"}],"textures":[{"extensions":{"MSFT_texture_dds":{"source":0}}}],"buffers":[{"byteLength":7552,"uri":"Gabel_Cone.bin"}],"images":[{"uri":"GABLE MARKER WHITE.PNG.DDS","name":"Gable Marker White","extras":"ASOBO_image_converted_meta"}]}
